<?xml version="1.0" standalone="no"?>
<!DOCTYPE svg PUBLIC "-//W3C//DTD SVG 20010904//EN"
 "http://www.w3.org/TR/2001/REC-SVG-20010904/DTD/svg10.dtd">
<svg version="1.0" xmlns="http://www.w3.org/2000/svg"
 width="1024.000000pt" height="1024.000000pt" viewBox="0 0 1024.000000 1024.000000"
 preserveAspectRatio="xMidYMid meet">
<metadata>
Created by potrace 1.14, written by Peter Selinger 2001-2017
</metadata>
<g transform="translate(0.000000,1024.000000) scale(0.100000,-0.100000)"
fill="#000000" stroke="none">
<path d="M0 5120 l0 -5120 5120 0 5120 0 0 5120 0 5120 -5120 0 -5120 0 0
-5120z m5717 3971 c817 -111 1518 -457 2099 -1036 591 -589 997 -1389 1144
-2250 44 -258 55 -395 55 -685 0 -338 -23 -534 -95 -827 -177 -725 -616 -1386
-1260 -1898 -765 -609 -1792 -1007 -2890 -1121 -171 -17 -451 -34 -462 -27 -5
2 -8 242 -8 533 l0 529 53 5 c28 3 117 10 197 15 1147 84 2212 652 2755 1471
352 530 471 1109 369 1795 -75 505 -294 1010 -610 1405 -88 110 -286 307 -392
390 -352 275 -745 442 -1182 501 -119 16 -457 16 -615 0 -914 -95 -1667 -538
-1983 -1166 -132 -263 -176 -507 -153 -838 29 -404 121 -702 300 -969 213
-318 541 -535 933 -618 599 -127 1279 85 1532 477 96 149 124 281 106 504 -16
203 -42 307 -108 432 -91 175 -249 249 -432 203 -67 -17 -240 -97 -259 -119
-7 -9 0 -37 24 -97 84 -207 68 -394 -46 -565 -173 -258 -515 -347 -805 -209
-251 119 -432 383 -500 729 -23 118 -23 360 0 462 52 238 162 430 346 607 365
349 966 518 1539 431 594 -89 1069 -425 1324 -935 117 -232 189 -485 217 -763
16 -157 8 -543 -14 -660 -117 -617 -522 -1115 -1161 -1427 -306 -150 -583
-231 -975 -286 -156 -22 -632 -26 -780 -6 -721 98 -1266 346 -1714 782 -357
347 -592 756 -726 1265 -121 456 -149 1004 -74 1425 75 416 268 838 541 1180
86 109 282 310 398 409 634 544 1509 890 2455 971 185 15 684 4 857 -19z
m-3900 -5823 c47 -12 123 -74 123 -102 0 -9 87 -46 243 -104 133 -50 465 -174
738 -275 272 -102 518 -197 547 -211 44 -22 56 -35 82 -86 16 -33 30 -66 30
-75 0 -12 14 -15 67 -15 l68 0 82 -82 83 -83 0 -465 0 -465 -82 -92 -81 -93
-530 0 -530 0 -110 82 -110 82 -166 23 c-417 56 -979 133 -1013 139 l-38 6 0
307 0 307 393 53 c557 75 810 111 823 115 6 2 59 41 117 85 l106 81 156 0 156
0 -31 45 c-33 47 -98 82 -867 457 l-143 69 -37 -30 c-79 -62 -177 -62 -249 1
-48 42 -67 83 -67 143 0 82 51 152 129 180 48 18 55 18 111 3z"/>
</g>
</svg>
